<?xml version="1.0" encoding="UTF-8"?>
<svg version="1.1" xmlns="http://www.w3.org/2000/svg" width="500" height="500">
<path d="M0 0 C165 0 330 0 500 0 C500 165 500 330 500 500 C335 500 170 500 0 500 C0 335 0 170 0 0 Z " fill="#FEFCF4" transform="translate(0,0)"/>
<path d="M0 0 C1.12148437 -0.01675781 2.24296875 -0.03351563 3.3984375 -0.05078125 C7.04479927 0.35976553 8.78841392 0.99741686 11.625 3.3125 C15.0609908 8.60471646 15.05022241 13.20068502 15.00976562 19.29345703 C15.0151384 20.28277222 15.02051117 21.2720874 15.02604675 22.29138184 C15.03580682 24.43243587 15.03877427 26.57352937 15.03569031 28.71460342 C15.03120798 32.10207233 15.0452234 35.48902008 15.06408691 38.87643433 C15.10708606 47.28567926 15.11813195 55.69491243 15.13031006 64.10424805 C15.14182615 71.21763045 15.16534619 78.33077459 15.20500183 85.44405746 C15.21859958 88.78337268 15.21439687 92.12236827 15.20959473 95.46170044 C15.21893242 97.50458183 15.2291005 99.54745964 15.24023438 101.59033203 C15.23408615 102.52029999 15.22793793 103.45026794 15.22160339 104.40841675 C15.26402408 109.32232179 15.26402408 109.32232179 16.91467285 113.881073 C19.27535719 115.85680455 21.47265537 115.97753008 24.48828125 115.84375 C28.37472656 114.87746744 31.00735127 112.24123162 33.625 109.3125 C35.19341925 106.1756615 34.76335292 102.82806352 34.75439453 99.38476562 C34.75614685 98.5648262 34.75789917 97.74488678 34.75970459 96.90010071 C34.76412502 94.17296259 34.76118013 91.44588885 34.7578125 88.71875 C34.75848652 86.81416817 34.75945736 84.90958642 34.76071167 83.00500488 C34.76218973 78.99665515 34.76003442 74.98832763 34.75537109 70.97998047 C34.74973538 65.89244009 34.75291243 60.80495318 34.75894356 55.71741486 C34.76259938 51.7723553 34.76138679 47.82730789 34.75881577 43.88224792 C34.75815705 42.01035048 34.7589372 40.13845186 34.76129532 38.26655579 C34.77309223 26.24592814 34.42517514 14.30725646 33.625 2.3125 C37.73176377 1.43260458 41.54157222 1.14733773 45.75 1.125 C46.96945312 1.11082031 48.18890625 1.09664062 49.4453125 1.08203125 C52.625 1.3125 52.625 1.3125 55.625 3.3125 C56.00138092 5.3149786 56.00138092 5.3149786 56.00354004 7.82273865 C56.01174271 8.7719519 56.01994537 9.72116516 56.02839661 10.69914246 C56.02224838 11.74387222 56.01610016 12.78860199 56.00976562 13.86499023 C56.0151384 14.96261688 56.02051117 16.06024353 56.02604675 17.19113159 C56.03585012 19.58053765 56.03876123 21.96997942 56.03569031 24.35940361 C56.03123132 28.13691719 56.04515828 31.91395754 56.06408691 35.69142151 C56.10095746 43.7109484 56.11474736 51.73040586 56.125 59.75 C56.13687604 69.03650701 56.15849132 78.32276078 56.20500183 87.60917854 C56.21862893 91.33796658 56.2143905 95.06646942 56.20959473 98.79527283 C56.21893154 101.07372406 56.2290994 103.35217208 56.24023438 105.63061523 C56.23408615 106.67332077 56.22793793 107.71602631 56.22160339 108.79032898 C56.22980606 109.74236206 56.23800873 110.69439514 56.24645996 111.67527771 C56.24717247 112.50321555 56.24788498 113.33115339 56.24861908 114.18418026 C56.7166986 116.83102772 57.50877125 117.69970443 59.625 119.3125 C62.23111077 120.03447162 62.23111077 120.03447162 64.625 120.3125 C64.25803189 127.5295395 64.25803189 127.5295395 61.25 131.25 C56.64479772 134.86837322 52.25159448 134.69932591 46.58984375 134.671875 C42.14015599 134.13251891 40.50355033 132.67080872 37.625 129.3125 C37.625 128.6525 37.625 127.9925 37.625 127.3125 C36.84576172 127.81910156 36.84576172 127.81910156 36.05078125 128.3359375 C35.35339844 128.78195312 34.65601563 129.22796875 33.9375 129.6875 C33.25300781 130.12835938 32.56851563 130.56921875 31.86328125 131.0234375 C24.82562209 135.07653963 17.10639986 135.71389349 9.2109375 133.6953125 C2.91664815 130.94915537 -0.63423202 125.71114225 -3.6875 119.75 C-5.42053098 113.60561745 -5.52477147 107.44833717 -5.53271484 101.12011719 C-5.54033592 99.77981949 -5.54033592 99.77981949 -5.54811096 98.41244507 C-5.55876352 96.48365997 -5.56740348 94.55486292 -5.57423019 92.62606049 C-5.58607105 89.57496274 -5.60553276 86.52400325 -5.62734985 83.47296143 C-5.68882319 74.80233317 -5.74314271 66.13172392 -5.77636719 57.4609375 C-5.79726564 52.14892423 -5.83251659 46.83717148 -5.87712479 41.5253067 C-5.89130895 39.50148829 -5.90001265 37.47762388 -5.90317917 35.45375824 C-5.90806673 32.6313273 -5.93116417 29.80959461 -5.95849609 26.98730469 C-5.95548996 26.14881989 -5.95248383 25.31033508 -5.9493866 24.44644165 C-5.88692538 20.23780091 -5.88692538 20.23780091 -7.73153114 16.61757278 C-9.85594732 14.93058144 -11.71983824 14.67130564 -14.375 14.3125 C-14.87861366 10.08214527 -14.58429985 8.60665114 -12.0625 5.0625 C-7.94821251 0.85253141 -5.77989046 0.01983944 0 0 Z " fill="#050505" transform="translate(213.375,185.6875)"/>
<path d="M0 0 C2.87493951 1.59563795 4.9242479 3.46380835 7 6 C8.95517935 5.05021922 10.84803949 4.09660599 12.68359375 2.9296875 C19.24849757 -1.01802749 26.83655582 -1.26581789 34.21484375 0.54296875 C40.04358244 2.85150639 44.21131903 6.42263806 47 12 C49.18041684 17.25910257 49.28748962 21.9261273 49.27124023 27.52197266 C49.27646698 28.46251999 49.28169373 29.40306732 49.28707886 30.37211609 C49.29729199 32.40676843 49.30309456 34.44144669 49.30496025 36.47612381 C49.30862958 39.69549984 49.32537 42.91456943 49.34571838 46.13388062 C49.40109037 55.28418289 49.43187239 64.4345292 49.45629883 73.58496094 C49.47215472 79.18757442 49.50234688 84.78996785 49.54106331 90.3924675 C49.5527243 92.52711023 49.55864375 94.66179225 49.55874443 96.79646683 C49.55893604 99.77681808 49.57716837 102.75655964 49.59936523 105.73681641 C49.59478806 106.62003067 49.59021088 107.50324493 49.585495 108.41322327 C49.64087965 113.16597944 49.64087965 113.16597944 51.35707092 117.53207397 C53.47511623 119.42450735 55.21405428 119.69881668 58 120 C58.36516955 123.83428028 58.11001082 125.78812732 56.3125 129.25 C53.25195648 132.88956527 50.75193513 133.79964572 46.0625 134.3359375 C37.86341463 134.44051767 37.86341463 134.44051767 33.9375 132.4375 C29.04718755 126.28517144 28.56628646 120.6766388 28.63110352 113.08911133 C28.62733704 112.11915726 28.62357056 111.14920319 28.61968994 110.14985657 C28.61327745 108.05410031 28.61356866 105.95831495 28.61987495 103.86255836 C28.6290043 100.54641439 28.61874152 97.23083344 28.60325623 93.91471863 C28.56319636 84.49043611 28.56196016 75.06619921 28.56420898 65.6418457 C28.56426 59.86948054 28.54513986 54.09742137 28.51487541 48.32514 C28.50402937 45.05663372 28.51619011 41.78870577 28.52870178 38.5202179 C28.5198009 36.52104107 28.50972775 34.521869 28.49829102 32.52270508 C28.50803452 31.61300964 28.51777802 30.70331421 28.52781677 29.76605225 C28.48412349 24.78000247 28.48412349 24.78000247 26.21495056 20.43608093 C22.91582791 18.29706834 19.75092641 18.24088394 16 19 C13.1899654 20.79363911 11.49059532 22.01880935 10 25 C9.90810163 26.43182823 9.87806542 27.86786948 9.87974548 29.30264282 C9.87837082 30.20570663 9.87699615 31.10877045 9.87557983 32.03919983 C9.87917511 33.0325383 9.88277039 34.02587677 9.88647461 35.04931641 C9.88632858 36.09324051 9.88618256 37.13716461 9.8860321 38.21272278 C9.88673078 41.67569023 9.89452109 45.1386044 9.90234375 48.6015625 C9.90420809 50.99767019 9.90563192 53.39377827 9.90663147 55.78988647 C9.91045539 62.10608975 9.92028462 68.42227014 9.93133545 74.73846436 C9.94155226 81.17980642 9.94612967 87.62115217 9.95117188 94.0625 C9.96190698 106.70834311 9.97879055 119.35417034 10 132 C5.5255643 132.66419217 1.21385982 133.15874295 -3.3125 133.1875 C-4.33988281 133.20167969 -5.36726563 133.21585938 -6.42578125 133.23046875 C-9 133 -9 133 -11 131 C-11.25053978 129.01593208 -11.25053978 129.01593208 -11.2515564 126.53445435 C-11.25693924 125.5951004 -11.26232208 124.65574646 -11.26786804 123.68792725 C-11.26374405 122.65411926 -11.25962006 121.62031128 -11.25537109 120.55517578 C-11.25899155 119.468909 -11.262612 118.38264221 -11.26634216 117.26345825 C-11.27324946 114.89859992 -11.27573912 112.53372561 -11.27439499 110.16885757 C-11.27343329 106.42893862 -11.28632964 102.6893099 -11.30337524 98.94943237 C-11.34975787 88.31412061 -11.37434202 77.67885986 -11.38085938 67.04345703 C-11.38501028 60.54419519 -11.41006753 54.04517904 -11.44618607 47.54601669 C-11.45600824 45.06527388 -11.45830293 42.58448968 -11.45301437 40.10373306 C-11.4459705 36.63669692 -11.46317239 33.17056401 -11.48583984 29.70361328 C-11.47766739 28.67385376 -11.46949493 27.64409424 -11.46107483 26.58312988 C-11.45019313 21.12292214 -11.45019313 21.12292214 -13.86026001 16.37789917 C-16.26270313 14.83083065 -18.17337858 14.31406905 -21 14 C-20.63074596 7.84576594 -19.17122773 5.27296499 -15 1 C-10.53811473 -1.23094263 -4.82742691 -0.63639476 0 0 Z " fill="#030303" transform="translate(303,186)"/>
<path d="M0 0 C0.85049423 0.00222061 1.70098846 0.00444122 2.57725525 0.00672913 C4.01863609 0.00684242 4.01863609 0.00684242 5.48913574 0.00695801 C7.05630592 0.01469994 7.05630592 0.01469994 8.65513611 0.02259827 C9.71913132 0.02401321 10.78312653 0.02542816 11.87936401 0.02688599 C15.29293069 0.03250388 18.70643286 0.04505941 22.11997986 0.05775452 C24.42792162 0.06276721 26.73586441 0.06733052 29.04380798 0.07142639 C34.71505412 0.08247912 40.38626238 0.09923465 46.05747986 0.12025452 C46.12758864 20.20882586 46.18047721 40.29737234 46.21291637 60.38604069 C46.22837938 69.71374669 46.24945809 79.04137663 46.28379822 88.36903381 C46.31371789 96.4998654 46.33305898 104.6306419 46.33974534 112.761527 C46.34365325 117.06601274 46.35282558 121.37034089 46.37467003 125.67477608 C46.39507577 129.72866826 46.40130542 133.78233835 46.3968029 137.83627701 C46.39762628 139.3217394 46.40356764 140.80720945 46.41509628 142.29262733 C46.51715714 156.12456157 46.51715714 156.12456157 43.05747986 162.12025452 C42.56247986 162.98650452 42.06747986 163.85275452 41.55747986 164.74525452 C33.59371461 172.3108315 24.57143108 172.82672853 14.06626892 172.71376038 C7.26848417 172.45333787 1.35995758 171.75841271 -3.94252014 167.12025452 C-7.66251424 163.06576504 -9.07485539 158.89688806 -9.04017639 153.45228577 C-9.03695374 152.55960999 -9.03373108 151.6669342 -9.03041077 150.74720764 C-9.02203186 149.81843811 -9.01365295 148.88966858 -9.00502014 147.93275452 C-9.00050842 146.99238342 -8.9959967 146.05201233 -8.99134827 145.08314514 C-8.9795664 142.76211739 -8.96311572 140.44121807 -8.94252014 138.12025452 C-1.67990284 133.57999931 -1.67990284 133.57999931 3.36997986 133.80775452 C4.21173767 133.8322467 5.05349548 133.85673889 5.92076111 133.88197327 C8.05747986 134.12025452 8.05747986 134.12025452 10.05747986 135.12025452 C10.13095642 136.92623108 10.13095642 136.92623108 10.20591736 138.76869202 C10.28094329 140.34423649 10.35649119 141.91975618 10.43247986 143.49525452 C10.46341736 144.28931702 10.49435486 145.08337952 10.52622986 145.90150452 C10.57564407 150.48692827 10.57564407 150.48692827 13.05747986 154.12025452 C15.38810412 154.55307855 15.38810412 154.55307855 17.99497986 154.55775452 C18.8702533 154.59771545 19.74552673 154.63767639 20.64732361 154.67884827 C23.25287045 154.34851008 23.25287045 154.34851008 24.68319416 151.93849659 C26.19837971 148.83131177 26.43998594 146.90546669 26.45620728 143.4697876 C26.46874542 142.34383179 26.48128357 141.21787598 26.49420166 140.05780029 C26.49276657 138.83212845 26.49133148 137.6064566 26.48985291 136.34364319 C26.50004456 135.04568817 26.51023621 133.74773315 26.52073669 132.41044617 C26.54828673 128.85918025 26.55758842 125.30807446 26.56359076 121.75671554 C26.57297969 118.04240701 26.59918348 114.32821784 26.62359619 110.61398315 C26.66725069 103.58410386 26.69580405 96.55424774 26.71891958 89.52427417 C26.74597691 81.51940506 26.78988807 73.51465609 26.8352083 65.50987279 C26.92803951 49.04672762 26.99972717 32.58356091 27.05747986 16.12025452 C25.83496521 16.19171692 24.61245056 16.26317932 23.35289001 16.33680725 C21.72577885 16.43006993 20.09866269 16.52324566 18.47154236 16.61634827 C17.2670343 16.68710571 17.2670343 16.68710571 16.03819275 16.7592926 C10.03954337 17.10002078 4.06621791 17.23937047 -1.94252014 17.12025452 C-2.99044539 13.68538841 -3.07624199 10.51307415 -3.06752014 6.93275452 C-3.07009827 5.86669983 -3.07267639 4.80064514 -3.07533264 3.70228577 C-2.89411308 0.17916425 -2.89411308 0.17916425 0 0 Z " fill="#010101" transform="translate(141.94252014160156,187.87974548339844)"/>
<path d="M0 0 C4.16292307 2.34164423 5.52641721 4.55994704 7 9 C7.69224488 15.17626276 7.69243807 20.77965653 4 26 C1.12638661 29.03325858 -0.32637477 29.91579685 -4.5 30.4375 C-8.28056714 29.96492911 -10.0847525 29.42937292 -13 27 C-17.19740348 21.49995407 -16.76202331 14.59600821 -16 8 C-13.08157047 -0.28943598 -8.0591628 -0.91379484 0 0 Z " fill="#070606" transform="translate(183,133)"/>
</svg>
